PathFileType	4	(X/Y/Z)	intermediate\S1_nor_med_left\tmpk2z6hi7d.trc
DataRate	CameraRate	NumFrames	NumMarkers	Units	OrigDataRate	OrigDataStartFrame	OrigNumFrames
250.0	250.0	6	18	mm	250.0	5758	7677
Frame#	Time	c7			r_should			l_should			clavicle			r_upa			r_elb_l			r_elb_m			r_low			r_wri_l			r_wri_m			r_met			l_upa			l_elb_l			l_elb_m			l_low			l_wri_l			l_wri_m			l_met			
		X	Y	Z	X	Y	Z	X	Y	Z	X	Y	Z	X	Y	Z	X	Y	Z	X	Y	Z	X	Y	Z	X	Y	Z	X	Y	Z	X	Y	Z	X	Y	Z	X	Y	Z	X	Y	Z	X	Y	Z	X	Y	Z	X	Y	Z	X	Y	Z	
5758	23.028000	883.339172	1417.393799	75.181465	964.318481	1354.899170	258.316345	931.769836	1341.161743	-115.402100	1021.431946	1298.408325	65.532372	972.486816	1141.934082	305.236237	998.275879	1040.678345	311.550354	921.995056	1022.476929	241.470062	952.402100	911.245911	326.635132	1031.277588	820.742737	297.791840	964.141846	805.212952	317.624176	1068.252930	747.052368	314.037933	962.467407	1122.479736	-137.147232	976.686218	1074.199829	-144.027069	963.067200	1027.400757	-51.609375	1094.094971	1065.406982	-99.532005	nan	nan	nan	1169.268311	1124.065186	-57.992401	1214.575317	1174.248169	-134.241837	
5759	23.032000	883.258728	1417.392090	75.167488	964.229126	1354.903320	258.312134	931.706970	1341.118286	-115.409927	1021.347534	1298.394165	65.543785	972.412598	1141.917358	305.242523	998.178040	1040.676270	311.563019	921.915405	1022.472961	241.479721	952.302734	911.246399	326.642273	1031.184448	820.743530	297.811554	964.045166	805.203918	317.630951	1068.153564	747.052063	314.058716	961.927246	1122.378784	-137.329208	975.858948	1073.799316	-143.613800	962.172852	1027.146118	-51.764500	1093.644409	1064.093384	-99.598045	nan	nan	nan	1169.461792	1122.208618	-58.000896	1215.184326	1171.636353	-134.345825	
5760	23.036000	883.182983	1417.378906	75.154945	964.132019	1354.900391	258.318390	931.656677	1341.077271	-115.418808	1021.267639	1298.368530	65.557869	972.336609	1141.910034	305.254456	998.087891	1040.677368	311.577393	921.825989	1022.478088	241.495529	952.203064	911.241272	326.650146	1031.094360	820.741028	297.834015	963.947266	805.194946	317.641937	1068.088745	747.086243	314.208130	961.368225	1122.374512	-137.375320	975.262390	1073.474365	-143.448685	961.413513	1026.906128	-51.787998	1093.197144	1062.774170	-99.674850	nan	nan	nan	1169.709229	1120.339233	-58.054848	1215.902588	1169.075195	-134.484116	
5761	23.040000	883.117310	1417.369873	75.145988	964.031433	1354.906982	258.327362	931.617310	1341.037720	-115.429344	1021.207214	1298.345947	65.583931	972.247620	1141.914185	305.272919	997.990967	1040.676392	311.584808	921.736938	1022.480103	241.503723	952.102722	911.238342	326.662476	1031.003418	820.739685	297.853424	963.850037	805.194641	317.656769	1068.034668	747.125305	314.386536	960.793030	1122.427124	-137.162277	974.697937	1073.168091	-143.360794	960.772949	1026.687256	-51.753670	1092.735718	1061.476807	-99.739983	nan	nan	nan	1169.959351	1118.475830	-58.113419	1216.474487	1166.440186	-134.635956	
5762	23.044000	883.060791	1417.361938	75.121536	963.940979	1354.910767	258.327393	931.591614	1340.998169	-115.442444	1021.145081	1298.320435	65.591743	972.151428	1141.917236	305.283325	997.890442	1040.682129	311.593964	921.645996	1022.481934	241.506668	952.004211	911.244324	326.674561	1030.912109	820.742065	297.874023	963.751892	805.201782	317.664398	1067.879883	747.065735	314.203217	960.269104	1122.305298	-137.076477	974.154480	1072.869141	-143.298950	960.144287	1026.478760	-51.717865	1092.243286	1060.141602	-99.784042	nan	nan	nan	1170.197632	1116.572632	-58.157784	1217.089478	1163.798706	-134.781006	
5763	23.048000	883.013611	1417.359131	75.090652	963.847168	1354.919678	258.326843	931.579285	1340.966187	-115.460365	1021.080261	1298.297119	65.598610	972.064880	1141.913574	305.278229	997.794739	1040.691406	311.605591	921.558289	1022.483582	241.513153	951.905273	911.247742	326.683960	1030.817871	820.750732	297.893402	963.654480	805.208008	317.673096	1067.760620	747.058716	314.177368	959.779602	1122.139648	-137.007309	973.700195	1072.660156	-143.193344	959.461914	1026.281860	-51.671375	1091.737305	1058.807495	-99.813843	nan	nan	nan	1170.424927	1114.652954	-58.221207	1217.651123	1161.145264	-134.913849	
